<mxfile host="app.diagrams.net" modified="2020-08-10T20:22:02.368Z" agent="5.0 (Windows)" etag="sjP3hVDPtlEj8zFC6KCQ" version="13.6.2" type="github">
  <diagram id="7OcI634DCCXWDtK5YtFM" name="Page-1">
    <mxGraphModel dx="868" dy="429" grid="1" gridSize="10" guides="1" tooltips="1" connect="1" arrows="1" fold="1" page="1" pageScale="1" pageWidth="850" pageHeight="1100" math="0" shadow="0">
      <root>
        <mxCell id="0" />
        <mxCell id="1" parent="0" />
        <mxCell id="miyrGK5Ir0pwEBqTJMYr-29" value="Topics" style="rounded=0;whiteSpace=wrap;html=1;" vertex="1" parent="1">
          <mxGeometry x="280" y="50" width="120" height="250" as="geometry" />
        </mxCell>
        <mxCell id="miyrGK5Ir0pwEBqTJMYr-34" style="edgeStyle=orthogonalEdgeStyle;rounded=0;orthogonalLoop=1;jettySize=auto;html=1;entryX=0;entryY=0.75;entryDx=0;entryDy=0;" edge="1" parent="1" source="miyrGK5Ir0pwEBqTJMYr-1" target="miyrGK5Ir0pwEBqTJMYr-4">
          <mxGeometry relative="1" as="geometry" />
        </mxCell>
        <mxCell id="miyrGK5Ir0pwEBqTJMYr-1" value="Producer1" style="ellipse;whiteSpace=wrap;html=1;" vertex="1" parent="1">
          <mxGeometry x="120" y="90" width="120" height="80" as="geometry" />
        </mxCell>
        <mxCell id="miyrGK5Ir0pwEBqTJMYr-35" style="edgeStyle=orthogonalEdgeStyle;rounded=0;orthogonalLoop=1;jettySize=auto;html=1;entryX=0.111;entryY=0;entryDx=0;entryDy=0;entryPerimeter=0;" edge="1" parent="1" source="miyrGK5Ir0pwEBqTJMYr-2" target="miyrGK5Ir0pwEBqTJMYr-18">
          <mxGeometry relative="1" as="geometry" />
        </mxCell>
        <mxCell id="miyrGK5Ir0pwEBqTJMYr-2" value="Producer2" style="ellipse;whiteSpace=wrap;html=1;" vertex="1" parent="1">
          <mxGeometry x="120" y="210" width="120" height="80" as="geometry" />
        </mxCell>
        <mxCell id="miyrGK5Ir0pwEBqTJMYr-3" value="" style="rounded=0;whiteSpace=wrap;html=1;" vertex="1" parent="1">
          <mxGeometry x="440" y="40" width="250" height="260" as="geometry" />
        </mxCell>
        <mxCell id="miyrGK5Ir0pwEBqTJMYr-4" value="Broker" style="rounded=1;whiteSpace=wrap;html=1;" vertex="1" parent="1">
          <mxGeometry x="475" y="60" width="100" height="40" as="geometry" />
        </mxCell>
        <mxCell id="miyrGK5Ir0pwEBqTJMYr-5" value="Broker" style="rounded=1;whiteSpace=wrap;html=1;" vertex="1" parent="1">
          <mxGeometry x="475" y="140" width="100" height="40" as="geometry" />
        </mxCell>
        <mxCell id="miyrGK5Ir0pwEBqTJMYr-6" value="Broker" style="rounded=1;whiteSpace=wrap;html=1;" vertex="1" parent="1">
          <mxGeometry x="475" y="190" width="100" height="40" as="geometry" />
        </mxCell>
        <mxCell id="miyrGK5Ir0pwEBqTJMYr-7" value="Zookeepr" style="rounded=1;whiteSpace=wrap;html=1;" vertex="1" parent="1">
          <mxGeometry x="480" y="260" width="100" height="40" as="geometry" />
        </mxCell>
        <mxCell id="miyrGK5Ir0pwEBqTJMYr-27" style="edgeStyle=orthogonalEdgeStyle;rounded=0;orthogonalLoop=1;jettySize=auto;html=1;" edge="1" parent="1" source="miyrGK5Ir0pwEBqTJMYr-17">
          <mxGeometry relative="1" as="geometry">
            <mxPoint x="350" y="220" as="targetPoint" />
            <Array as="points">
              <mxPoint x="530" y="140" />
              <mxPoint x="350" y="140" />
            </Array>
          </mxGeometry>
        </mxCell>
        <mxCell id="miyrGK5Ir0pwEBqTJMYr-37" style="edgeStyle=orthogonalEdgeStyle;rounded=0;orthogonalLoop=1;jettySize=auto;html=1;" edge="1" parent="1" source="miyrGK5Ir0pwEBqTJMYr-17" target="miyrGK5Ir0pwEBqTJMYr-30">
          <mxGeometry relative="1" as="geometry" />
        </mxCell>
        <mxCell id="miyrGK5Ir0pwEBqTJMYr-17" value="" style="shape=process;whiteSpace=wrap;html=1;backgroundOutline=1;" vertex="1" parent="1">
          <mxGeometry x="485" y="90" width="90" height="10" as="geometry" />
        </mxCell>
        <mxCell id="miyrGK5Ir0pwEBqTJMYr-18" value="" style="shape=process;whiteSpace=wrap;html=1;backgroundOutline=1;" vertex="1" parent="1">
          <mxGeometry x="485" y="170" width="90" height="10" as="geometry" />
        </mxCell>
        <mxCell id="miyrGK5Ir0pwEBqTJMYr-19" value="" style="shape=process;whiteSpace=wrap;html=1;backgroundOutline=1;" vertex="1" parent="1">
          <mxGeometry x="485" y="220" width="90" height="10" as="geometry" />
        </mxCell>
        <mxCell id="miyrGK5Ir0pwEBqTJMYr-22" style="edgeStyle=orthogonalEdgeStyle;rounded=0;orthogonalLoop=1;jettySize=auto;html=1;entryX=0.16;entryY=0.975;entryDx=0;entryDy=0;entryPerimeter=0;" edge="1" parent="1" source="miyrGK5Ir0pwEBqTJMYr-21" target="miyrGK5Ir0pwEBqTJMYr-4">
          <mxGeometry relative="1" as="geometry" />
        </mxCell>
        <mxCell id="miyrGK5Ir0pwEBqTJMYr-21" value="Partion 1" style="shape=process;whiteSpace=wrap;html=1;backgroundOutline=1;" vertex="1" parent="1">
          <mxGeometry x="300" y="90" width="90" height="60" as="geometry" />
        </mxCell>
        <mxCell id="miyrGK5Ir0pwEBqTJMYr-38" style="edgeStyle=orthogonalEdgeStyle;rounded=0;orthogonalLoop=1;jettySize=auto;html=1;" edge="1" parent="1" source="miyrGK5Ir0pwEBqTJMYr-23" target="miyrGK5Ir0pwEBqTJMYr-30">
          <mxGeometry relative="1" as="geometry" />
        </mxCell>
        <mxCell id="miyrGK5Ir0pwEBqTJMYr-23" value="" style="shape=process;whiteSpace=wrap;html=1;backgroundOutline=1;" vertex="1" parent="1">
          <mxGeometry x="495" y="170" width="90" height="10" as="geometry" />
        </mxCell>
        <mxCell id="miyrGK5Ir0pwEBqTJMYr-24" value="Partion 2" style="shape=process;whiteSpace=wrap;html=1;backgroundOutline=1;" vertex="1" parent="1">
          <mxGeometry x="300" y="220" width="90" height="60" as="geometry" />
        </mxCell>
        <mxCell id="miyrGK5Ir0pwEBqTJMYr-30" value="&lt;div align=&quot;left&quot;&gt;Consumer Group&lt;br&gt;&lt;/div&gt;" style="rounded=0;whiteSpace=wrap;html=1;labelPosition=left;verticalLabelPosition=top;align=right;verticalAlign=bottom;" vertex="1" parent="1">
          <mxGeometry x="720" y="30" width="120" height="280" as="geometry" />
        </mxCell>
        <mxCell id="miyrGK5Ir0pwEBqTJMYr-31" value="C0nsumer 1 " style="ellipse;whiteSpace=wrap;html=1;aspect=fixed;" vertex="1" parent="1">
          <mxGeometry x="730" y="40" width="80" height="80" as="geometry" />
        </mxCell>
        <mxCell id="miyrGK5Ir0pwEBqTJMYr-32" value="C0nsumer 2 " style="ellipse;whiteSpace=wrap;html=1;aspect=fixed;" vertex="1" parent="1">
          <mxGeometry x="730" y="130" width="80" height="80" as="geometry" />
        </mxCell>
        <mxCell id="miyrGK5Ir0pwEBqTJMYr-33" value="C0nsumer 3 " style="ellipse;whiteSpace=wrap;html=1;aspect=fixed;" vertex="1" parent="1">
          <mxGeometry x="730" y="220" width="80" height="80" as="geometry" />
        </mxCell>
        <mxCell id="miyrGK5Ir0pwEBqTJMYr-39" value="&lt;div&gt;Steps : for this :&lt;/div&gt;&lt;div&gt;&lt;br&gt;&lt;/div&gt;&lt;div&gt;1) Create a Topic with parttion &lt;br&gt;&lt;/div&gt;&lt;div&gt;2) Create a Consumer Group&lt;/div&gt;&lt;div&gt;3)Subscibr o Topic &lt;br&gt;&lt;/div&gt;&lt;div&gt;4)Send Messages &lt;br&gt;&lt;/div&gt;&lt;div&gt;5) Consume messages .&lt;/div&gt;" style="text;html=1;strokeColor=none;fillColor=none;spacing=5;spacingTop=-20;whiteSpace=wrap;overflow=hidden;rounded=0;" vertex="1" parent="1">
          <mxGeometry x="60" y="330" width="720" height="120" as="geometry" />
        </mxCell>
      </root>
    </mxGraphModel>
  </diagram>
</mxfile>
